<?xml version="1.0" encoding="UTF-8" standalone="no"?>
<!-- Created with Inkscape (http://www.inkscape.org/) -->

<svg
   xmlns:dc="http://purl.org/dc/elements/1.1/"
   xmlns:cc="http://creativecommons.org/ns#"
   xmlns:rdf="http://www.w3.org/1999/02/22-rdf-syntax-ns#"
   xmlns:svg="http://www.w3.org/2000/svg"
   xmlns="http://www.w3.org/2000/svg"
   xmlns:sodipodi="http://sodipodi.sourceforge.net/DTD/sodipodi-0.dtd"
   xmlns:inkscape="http://www.inkscape.org/namespaces/inkscape"
   width="295.01553mm"
   height="223.00232mm"
   viewBox="0 0 1045.3307 790.16569"
   id="svg13739"
   version="1.1"
   inkscape:version="0.91 r13725"
   sodipodi:docname="fda-runner.svg">
  <defs
     id="defs13741" />
  <sodipodi:namedview
     id="base"
     pagecolor="#ffffff"
     bordercolor="#666666"
     borderopacity="1.0"
     inkscape:pageopacity="0.0"
     inkscape:pageshadow="2"
     inkscape:zoom="0.46182777"
     inkscape:cx="278.60083"
     inkscape:cy="189.85901"
     inkscape:document-units="px"
     inkscape:current-layer="layer1"
     showgrid="false"
     fit-margin-top="0"
     fit-margin-left="0"
     fit-margin-right="0"
     fit-margin-bottom="0"
     inkscape:window-width="1916"
     inkscape:window-height="1035"
     inkscape:window-x="4"
     inkscape:window-y="1"
     inkscape:window-maximized="1" />
  <metadata
     id="metadata13744">
    <rdf:RDF>
      <cc:Work
         rdf:about="">
        <dc:format>image/svg+xml</dc:format>
        <dc:type
           rdf:resource="http://purl.org/dc/dcmitype/StillImage" />
        <dc:title></dc:title>
      </cc:Work>
    </rdf:RDF>
  </metadata>
  <g
     inkscape:label="Layer 1"
     inkscape:groupmode="layer"
     id="layer1"
     transform="translate(165.31898,-557.72768)">
    <path
       style="fill:#dd2622;fill-opacity:1"
       d="m 813.4797,1347.7141 c -0.3593,-0.3594 -413.70486,-1.5554 -453.2073,-1.3114 -60.60187,0.3744 -517.76286,0.4599 -521.59148,0.097 l -3.59148,-0.3399 0.0915,-29.6601 c 0.0503,-16.313 -0.10312,-51.1405 -0.34097,-77.3943 -0.23786,-26.2538 -0.20495,-47.9617 0.0731,-48.2398 0.27806,-0.278 15.09767,-0.7448 32.93245,-1.0373 17.83478,-0.2924 51.55188,-0.9609 74.92688,-1.4855 23.375,-0.5245 62.4561743,0.1811 88.581174,-0.1659 26.125,-0.3471 49.552017,-0.1484 50.036897,-0.6024 1.20081,-1.1242 -3.238831,-5.0371 -25.788261,-12.244 -10.6314,-3.3978 -20.67981,-6.7961 -22.32981,-7.5517 -1.65,-0.7557 -7.725,-3.3941 -13.5,-5.8632 -9.48754,-4.0565 -10.52845,-4.7591 -10.79503,-7.2869 -0.35716,-3.3867 6.42761,-17.4313 10.54542,-21.8293 3.01697,-3.2222 11.39851,-8.7375 15.02999,-9.8901 1.1939,-0.3789 3.64422,-2.1481 5.44517,-3.9314 3.91438,-3.8763 26.00954,-27.4856 34.28838,-36.6383 9.912232,-9.519 17.358139,-13.0072 22.53355,-21.1584 6.54746,-10.3671 22.84514,-30.5549 30.05937,-37.2342 8.53853,-7.9053 18.01681,-13.7955 27.57219,-17.1344 3.75153,-1.3109 6.82096,-2.9582 6.82096,-3.6606 0,-1.9254 -20.75877,-8.55225 -32.91596,-10.50781 -8.67916,-1.39609 -11.62355,-1.49939 -16.08198,-0.56423 -8.42768,1.76773 -12.13228,3.95297 -15.00156,8.84904 -1.52172,2.5966 -4.71269,5.8118 -7.78913,7.8481 -2.86625,1.8973 -6.42049,4.554 -7.8983,5.9038 -3.03731,2.7743 -7.37763,10.6581 -8.34544,15.1587 -1.61678,7.5185 -3.73565,12.4456 -5.98634,13.9203 -4.58122,3.0018 -8.05343,2.0093 -16.68074,-4.7677 -3.9351,-3.0912 -7.10106,-8.8148 -8.19095,-14.8081 -0.81525,-4.483 0.91443,-23.7345 2.83753,-31.58196 4.11034,-16.77292 5.79861,-23.13103 9.96976,-37.54672 6.50669,-22.4874 7.48861,-24.02285 13.71638,-21.44846 1.8517,0.76544 5.8821,1.45214 8.95645,1.526 7.34974,0.17658 10.37554,1.4328 15.90177,6.60194 3.78133,3.53699 5.51684,4.4145 9.87401,4.9925 5.18864,0.6883 11.50128,2.80158 19.83038,6.63864 3.65021,1.68158 5.60092,1.85269 15,1.31577 6.81837,-0.3895 12.80486,-0.18773 16.22749,0.54694 3.25441,0.69856 5.78699,0.80052 6.33256,0.25495 0.54557,-0.54557 0.53572,-5.65531 -0.0246,-12.77662 -0.51359,-6.5271 -0.61144,-15.91745 -0.21743,-20.86745 0.66122,-8.30711 0.55382,-9.17912 -1.39503,-11.32661 -1.77951,-1.96088 -2.74862,-2.23106 -6.16501,-1.71874 -3.91651,0.58732 -4.11532,0.48001 -5.87906,-3.17339 -1.00401,-2.07969 -3.54245,-9.01993 -5.64097,-15.42276 -2.09852,-6.40282 -5.19211,-14.67756 -6.87465,-18.38831 -2.80828,-6.19346 -3.05918,-7.63459 -3.05918,-17.57099 0,-12.9076 1.54497,-17.8808 9.1975,-29.60646 4.92925,-7.55288 15.91814,-21.62814 17.78769,-22.78359 2.12115,-1.31094 39.36734,18.79913 61.60727,33.26317 l 10.25208,6.66758 0.32773,5.63711 c 0.30146,5.18529 -0.003,8.10491 -1.71484,16.46281 -0.64079,3.12795 1.59003,7.06036 20.68343,36.46018 10.9582,16.87332 16.63607,27.25471 24.37284,44.56318 4.50904,10.0875 11.12537,28.47636 13.83781,38.45962 2.78985,10.26816 2.56654,13.22281 -1.75503,23.22107 -1.66002,3.8406 -10.31985,11.44 -16.24761,14.2581 -4.38145,2.0829 -16.04771,1.9019 -32.34887,-0.502 -18.49015,-2.7266 -18.00534,-2.7782 -21.18803,2.2518 -1.47841,2.3365 -4.17841,5.6635 -6,7.3934 0,0 -10.19121,11.6606 -28.97345,18.3548 -0.55106,0 -2.92401,1.575 -5.27322,3.5 -7.52754,5.4578 -11.30205,8.6433 -27.19817,19.4624 -8.87308,6.0395 -18.09808,13.0847 -20.5,15.6558 -6.02687,6.4516 -6.68638,7.0111 -21.33389,18.1 -11.50337,8.7086 -23.44672,20.7185 -23.51354,23.6446 -0.0108,0.4745 2.04763,3.6129 4.57436,6.9742 2.52673,3.3613 5.43471,7.7593 6.46217,9.7732 1.02746,2.014 3.57263,4.9843 5.65594,6.6006 5.41147,4.1986 18.85411,12.1423 21.79775,12.8811 4.13731,1.0384 9.06369,6.1738 7.49008,10.9031 -1.25639,3.7759 0.22359,6.9184 -7.88405,8.8371 0,0 -8.75271,1.4926 -2.47485,4.7626 49.41648,2.3653 264.24851,-4.1106 290.94785,-4.5913 126.10393,-1.7815 84.37672,-2.5516 195.64388,-2.5928 209.40037,-0.066 268.16487,0.2962 269.64587,1.6638 0.2082,0.1923 0.5184,7.9042 0.6891,17.1376 0.1708,9.2334 0.5588,23.538 0.8621,31.788 0.3034,8.25 0.8191,33.9 1.146,57 0.5568,39.3465 0.8992,51.1458 1.6251,56 0.2938,1.9651 -0.2816,2.0009 -32.9858,2.0485 -18.3067,0.027 -33.3852,-0.052 -33.5079,-0.1745 z M 357.2724,876.13282 c -7.76546,-0.76918 -10.37171,-1.56255 -19,-5.78381 -5.5,-2.6908 -12.36652,-5.63108 -15.25893,-6.53395 -13.56567,-4.23457 -29.66052,-20.03883 -48.05579,-47.18813 -2.3154,-3.41725 -4.0918,-6.76553 -3.94755,-7.44061 0.63301,-2.96246 -3.17401,-1.50794 -8.06028,3.07954 -2.91721,2.73882 -6.19319,5.26188 -7.27997,5.60681 -1.42387,0.45192 -5.10836,-1.46036 -13.18672,-6.84398 -18.11824,-12.07444 -42.81842,-25.01305 -64.13483,-33.59553 -4.90824,-1.97616 -9.09436,-4.11391 -9.3025,-4.75054 -0.20814,-0.63662 1.72541,-3.52631 4.29676,-6.42152 4.77796,-5.37973 6.60504,-8.82662 9.079,-17.12801 0.77153,-2.58887 1.81143,-4.95961 2.3109,-5.2683 0.81211,-0.50191 23.53785,10.68539 36.53991,17.98766 6.16367,3.46167 37.7362,24.18132 45.90639,30.12633 3.29658,2.39874 6.57517,4.36135 7.28576,4.36135 0.71059,0 5.90595,-6.1875 11.54524,-13.75 5.63928,-7.5625 12.95535,-16.45626 16.25793,-19.7639 8.94577,-8.95951 12.79072,-14.05171 17.91246,-23.72302 5.80398,-10.95958 7.15657,-16.51132 8.58814,-35.25018 0.62972,-8.2429 1.28358,-15.12573 1.45302,-15.29517 0.71409,-0.71409 5.52941,8.81063 6.59624,13.0474 1.32928,5.27906 0.36475,9.05669 -6.06016,23.73487 -2.04633,4.675 -4.04127,10.075 -4.4332,12 -1.50657,7.39969 -9.84871,26.03034 -13.77824,30.77119 -0.5795,0.69915 -1.19068,2.79834 -1.35816,4.66486 -0.16749,1.86652 -1.91304,6.58776 -3.87901,10.49165 -3.52453,6.99877 -3.55104,7.14323 -1.89681,10.33514 2.23944,4.32109 3.2876,9.23692 2.30761,10.82257 -0.51715,0.83677 0.66726,2.91997 3.37822,5.94179 2.29601,2.5593 6.82127,8.55631 10.05612,13.32668 6.03867,8.9051 18.03661,20.64612 21.09792,20.64612 0.94148,0 2.90626,-0.80372 4.36616,-1.78604 6.03922,-4.06358 7.85913,-4.53429 14.36291,-3.71486 3.4603,0.43597 9.18616,1.06452 12.72413,1.39679 6.08915,0.57185 6.47847,0.76432 7.29022,3.60411 2.62904,9.19734 0.11239,22.43845 -5.71744,30.08174 -2.90007,3.80218 -2.47166,3.74958 -18.00545,2.21095 z M 87.38904,833.3084 c -1.85937,-1.63255 -4.23847,-2.96827 -5.28689,-2.96827 -1.59985,0 -9.32975,-7.78483 -9.32975,-9.39605 0,-0.28332 -1.125,-2.17291 -2.5,-4.19909 -1.375,-2.02617 -2.49964,-4.63366 -2.49921,-5.79441 0.002,-4.21657 5.9365,-14.53382 12.43217,-21.61203 14.63606,-15.94864 18.79305,-24.80627 32.54921,-69.35515 3.68093,-11.92059 8.61137,-21.99609 14.45039,-29.5298 2.3929,-3.08741 5.02841,-6.96453 5.8567,-8.61583 2.41062,-4.80587 4.51273,-6.00408 17.21074,-9.81015 13.71065,-4.10959 18.19278,-4.84739 46.5,-7.65428 18.37675,-1.82221 21.84645,-2.47296 33.5,-6.28298 12.58846,-4.11568 13.41154,-4.25023 26,-4.25023 12.53758,0 13.19024,0.10538 18.34835,2.96246 10.64292,5.89512 18.19748,18.143 18.12969,29.39288 -0.0249,4.13886 -2.74593,10.61305 -5.79285,13.78319 -1.13047,1.1762 -4.05185,5.25319 -6.49194,9.05998 -5.76896,9.00017 -7.88008,11.18719 -15.62112,16.18282 -9.85463,6.35962 -23.11594,9.85704 -38.99245,10.28352 -9.33151,0.25067 -11.07968,-1.35092 -11.07968,-10.15063 0,-3.17032 -0.28125,-7.17047 -0.625,-8.88922 l -0.625,-3.125 -10.125,-0.0596 c -5.56875,-0.0328 -12.15,-0.45102 -14.625,-0.92941 -2.475,-0.47839 -7.80396,-1.43791 -11.84214,-2.13226 l -7.34215,-1.26246 -4.68897,4.94187 c -2.57894,2.71803 -6.22116,6.96687 -8.09383,9.44187 -1.87267,2.475 -7.75104,8.80021 -13.06305,14.05602 -9.9223,9.81733 -13.32186,14.5846 -16.87406,23.66287 -1.12315,2.87038 -4.25364,10.07038 -6.95664,16 -2.703,5.92961 -5.68451,13.70611 -6.62557,17.28111 -0.94106,3.575 -1.96824,7.175 -2.28263,8 -0.31439,0.825 -0.62367,3.3 -0.68729,5.5 -0.0739,2.55439 -1.87456,7.646 -4.98251,14.08845 -3.95312,8.19441 -5.44832,10.33739 -7.964,11.41435 -1.70344,0.72923 -3.88526,1.68765 -4.8485,2.12981 -1.25899,0.57793 -2.70174,-0.0305 -5.13202,-2.16434 z m 222.4003,-117.93663 c -0.62823,-1.17385 -2.01078,-9.87369 -3.07233,-19.33296 -3.55779,-31.70276 -6.7771,-40.97739 -16.21609,-46.71758 l -2.85672,-1.73728 6.3141,-3.54077 c 3.47276,-1.94742 7.60773,-4.89799 9.18884,-6.55683 3.5091,-3.6816 3.14039,-6.1435 -1.80693,-12.06506 -9.46293,-11.32638 -12.42602,-20.65856 -10.61142,-33.42037 1.34099,-9.43096 4.78612,-21.37144 6.89923,-23.91201 2.23151,-2.68294 11.57832,-6.74248 18.987,-8.24651 3.66156,-0.74334 15.88238,-1.58577 27.15738,-1.87207 19.22261,-0.48811 20.90865,-0.38377 27.05807,1.67462 7.86373,2.63223 9.84605,3.98586 13.30407,9.08473 3.39021,4.99889 3.344,8.8464 -0.20137,16.76723 -2.48943,5.56174 -2.91684,7.98046 -3.46923,19.63249 -0.60031,12.66267 -0.50858,13.60568 1.94528,20 3.2904,8.57418 3.50217,11.53019 0.86318,12.04895 -2.53503,0.49832 -3.46537,1.94316 -3.48469,5.41178 -0.0116,2.07823 -0.50387,2.75 -2.01531,2.75 -1.32556,0 -2,0.66667 -2,1.97695 0,1.08732 -1.07,2.67803 -2.37778,3.53492 -2.14315,1.40425 -3.5795,5.50482 -4.01461,11.46118 -0.0592,0.81018 -1.25185,1.87675 -2.65036,2.37015 -2.09195,0.73807 -3.53756,0.26074 -8.15408,-2.69241 l -5.61133,-3.58953 -2.53329,1.99268 c -1.3933,1.09598 -3.64782,4.42715 -5.01003,7.40261 -1.69326,3.69857 -3.69017,6.19763 -6.31263,7.90002 -5.78974,3.75845 -11.53997,9.50421 -10.76557,10.7572 0.37725,0.61041 0.19408,1.41381 -0.40705,1.78532 -0.60113,0.37152 -3.74998,6.28371 -6.99746,13.1382 -3.24748,6.85449 -6.82749,13.28754 -7.95558,14.29567 -1.99633,1.78406 -2.08154,1.77602 -3.19329,-0.30132 z"
       id="path14405"
       inkscape:connector-curvature="0"
       sodipodi:nodetypes="csccsscssscscsssccccssssssccscssssssssssssssssssssssscscsssscsscccccscsccsssccccccsccccsssssssssssssssssssssssssssssssssssssscssscsssssssssssssssscssscssssssscsssccssscssssssssssssscssscsscsssscsss" />
  </g>
</svg>
